HIERARCHY
ROOT joint_Root
{
	OFFSET 0.0 0.0 0.0
	CHANNELS 6 Xposition Yposition Zposition Zrotation Xrotation Yrotation 
	JOINT Hips
	{
		OFFSET 4.5925 91.4895 -427.239
		CHANNELS 6 Xposition Yposition Zposition Zrotation Xrotation Yrotation 
		JOINT Spine
		{
			OFFSET 15.7357 0.0 0.0
			CHANNELS 6 Xposition Yposition Zposition Zrotation Xrotation Yrotation 
			JOINT Chest
			{
				OFFSET 8.98455 -0.406207 0.0
				CHANNELS 6 Xposition Yposition Zposition Zrotation Xrotation Yrotation 
				JOINT Neck
				{
					OFFSET 16.3773 0.0 0.0
					CHANNELS 6 Xposition Yposition Zposition Zrotation Xrotation Yrotation 
					JOINT Head
					{
						OFFSET 6.45672 0.0 0.0
						CHANNELS 6 Xposition Yposition Zposition Zrotation Xrotation Yrotation 
						End Site
						{
							OFFSET 0.0 0.0 0.0
						}
					}
				}
				JOINT Shoulder_L
				{
					OFFSET 12.9942 -0.242716 4.98039
					CHANNELS 6 Xposition Yposition Zposition Zrotation Xrotation Yrotation 
					JOINT UpperArm_L
					{
						OFFSET 5.34809 0.0 0.0
						CHANNELS 6 Xposition Yposition Zposition Zrotation Xrotation Yrotation 
						JOINT LowerArm_L
						{
							OFFSET 24.3286 1.87007e-05 0.0
							CHANNELS 6 Xposition Yposition Zposition Zrotation Xrotation Yrotation 
							JOINT Hand_L
							{
								OFFSET 22.2916 0.0 0.0
								CHANNELS 6 Xposition Yposition Zposition Zrotation Xrotation Yrotation 
								End Site
								{
									OFFSET 0.0 0.0 0.0
								}
							}
						}
					}
				}
				JOINT Shoulder_R
				{
					OFFSET 12.9945 -0.242716 -4.98039
					CHANNELS 6 Xposition Yposition Zposition Zrotation Xrotation Yrotation 
					JOINT UpperArm_R
					{
						OFFSET -5.34813 0.0 0.0
						CHANNELS 6 Xposition Yposition Zposition Zrotation Xrotation Yrotation 
						JOINT LowerArm_R
						{
							OFFSET -24.3289 0.000322201 0.0
							CHANNELS 6 Xposition Yposition Zposition Zrotation Xrotation Yrotation 
							JOINT Hand_R
							{
								OFFSET -22.2915 -0.000108084 0.0
								CHANNELS 6 Xposition Yposition Zposition Zrotation Xrotation Yrotation 
								End Site
								{
									OFFSET 0.0 0.0 0.0
								}
							}
						}
					}
				}
			}
		}
		JOINT UpperLeg_L
		{
			OFFSET -2.19248 -6.46944 0.0
			CHANNELS 6 Xposition Yposition Zposition Zrotation Xrotation Yrotation 
			JOINT LowerLeg_L
			{
				OFFSET 39.0811 0.0 -1.23785e-05
				CHANNELS 6 Xposition Yposition Zposition Zrotation Xrotation Yrotation 
				JOINT Foot_L
				{
					OFFSET 40.9854 0.0 -1.26872e-05
					CHANNELS 6 Xposition Yposition Zposition Zrotation Xrotation Yrotation 
					JOINT Toes_L
					{
						OFFSET 11.7543 0.0 0.0
						CHANNELS 6 Xposition Yposition Zposition Zrotation Xrotation Yrotation 
						End Site
						{
							OFFSET 0.0 0.0 0.0
						}
					}
				}
			}
		}
		JOINT UpperLeg_R
		{
			OFFSET -2.19251 6.46944 0.0
			CHANNELS 6 Xposition Yposition Zposition Zrotation Xrotation Yrotation 
			JOINT LowerLeg_R
			{
				OFFSET -39.0811 -0.00228153 -0.0401928
				CHANNELS 6 Xposition Yposition Zposition Zrotation Xrotation Yrotation 
				JOINT Foot_R
				{
					OFFSET -40.9854 0.0 0.0
					CHANNELS 6 Xposition Yposition Zposition Zrotation Xrotation Yrotation 
					JOINT Toes_R
					{
						OFFSET -11.7543 0.0 0.0
						CHANNELS 6 Xposition Yposition Zposition Zrotation Xrotation Yrotation 
						End Site
						{
							OFFSET 0.0 0.0 0.0
						}
					}
				}
			}
		}
	}
}
MOTION
Frames:	6
Frame Time:	0.0333333
0.000000 0.000000 0.000000 0.000000 0.000000 -0.000000 4.775460 91.454700 -0.630549 88.285500 -13.205600 3.630550 15.735700 0.000005 -0.000001 82.521600 84.189800 -79.567300 8.984550 -0.406207 -0.000000 3.805220 -1.612300 5.955980 16.377300 -0.000001 -0.000001 5.982650 -0.287510 -5.038100 6.456720 -0.000001 -0.000000 -2.232180 -1.335470 -4.207890 12.994200 -0.242716 4.980390 -83.725700 -11.311600 -60.727800 5.348090 -0.000007 -0.000001 -34.778200 -63.706500 -83.742100 24.328600 0.000019 0.000005 13.384700 10.902000 -51.521700 22.291600 -0.000001 0.000005 40.701400 5.301390 0.033542 12.994500 -0.242716 -4.980390 88.070700 7.949800 -76.311900 -5.348130 -0.000001 -0.000004 -57.002400 31.423100 -7.610340 -24.328900 0.000322 -0.000009 1.484410 3.433870 -23.410300 -22.291500 -0.000108 -0.000004 14.701000 5.396540 -2.825300 -2.192480 -6.469440 -0.000000 -177.956000 -24.014500 -4.779520 39.081100 -0.000007 -0.000012 -0.075756 0.144018 27.745300 40.985400 -0.000006 -0.000013 4.526670 6.336050 -69.760300 11.754300 -0.000000 0.000003 -0.000025 -0.000303 -16.589400 -2.192510 6.469440 -0.000001 174.736000 17.425500 173.329000 -39.081100 -0.002282 -0.040193 -0.105159 0.225055 25.732800 -40.985400 0.000008 0.000006 0.991940 20.504800 -64.930900 -11.754300 -0.000006 -0.000006 -0.001504 -0.022325 -17.480900
0.000000 0.000000 0.000000 0.000000 0.000000 -0.000000 4.732370 91.492500 -0.560020 88.549800 -12.905800 3.606440 15.735700 0.000005 -0.000001 82.400700 84.220300 -79.630700 8.984550 -0.406207 -0.000000 3.738450 -1.623840 5.587230 16.377300 -0.000001 -0.000001 5.903560 -0.362869 -4.873370 6.456720 -0.000001 -0.000000 -2.513760 -1.361040 -3.929370 12.994200 -0.242716 4.980390 -84.021200 -10.793100 -60.783200 5.348090 -0.000007 -0.000001 -35.168000 -62.455500 -81.769500 24.328600 0.000019 0.000005 13.868800 9.688330 -55.721900 22.291600 -0.000001 0.000005 42.421900 5.292390 0.283804 12.994500 -0.242716 -4.980390 88.046400 7.947380 -76.141700 -5.348130 -0.000001 -0.000004 -57.190300 31.642100 -7.771480 -24.328900 0.000322 -0.000009 1.412470 3.209010 -23.788500 -22.291500 -0.000108 -0.000004 14.668200 5.394660 -2.764550 -2.192480 -6.469440 -0.000000 -178.253000 -23.692100 -4.644190 39.081100 -0.000007 -0.000012 -0.074441 0.144013 27.334900 40.985400 -0.000006 -0.000013 4.470880 6.312990 -69.575900 11.754300 -0.000000 0.000003 -0.000027 -0.000334 -16.590600 -2.192510 6.469440 -0.000001 174.519000 17.191400 173.377000 -39.081100 -0.002282 -0.040193 -0.109610 0.235050 25.660300 -40.985400 0.000008 0.000006 0.913381 20.025800 -64.988400 -11.754300 -0.000006 -0.000006 -0.001554 -0.022987 -17.507800
0.000000 0.000000 0.000000 0.000000 0.000000 -0.000000 4.679480 91.535000 -0.492326 88.788300 -12.579800 3.528460 15.735700 0.000005 -0.000001 82.392700 84.282300 -79.788800 8.984550 -0.406207 -0.000000 3.611830 -1.606220 5.253020 16.377300 -0.000001 -0.000001 5.768710 -0.476757 -4.641770 6.456720 -0.000001 -0.000000 -2.614150 -1.379320 -3.680220 12.994200 -0.242716 4.980390 -84.436300 -10.148900 -61.065200 5.348090 -0.000007 -0.000001 -35.032500 -60.622400 -78.131300 24.328600 0.000019 0.000005 14.027900 7.717940 -61.743100 22.291600 -0.000001 0.000005 42.551300 5.281950 0.573120 12.994500 -0.242716 -4.980390 88.030400 7.928780 -76.001200 -5.348130 -0.000001 -0.000004 -57.613700 31.363300 -7.722730 -24.328900 0.000322 -0.000009 1.301730 2.912290 -24.114100 -22.291500 -0.000108 -0.000004 14.621200 5.397830 -2.867050 -2.192480 -6.469440 -0.000000 -178.508000 -23.603200 -4.533580 39.081100 -0.000007 -0.000012 -0.065713 0.129498 26.905500 40.985400 -0.000006 -0.000013 4.474460 6.535960 -69.402000 11.754300 -0.000000 0.000003 -0.000025 -0.000306 -16.589500 -2.192510 6.469440 -0.000001 174.348000 17.213300 173.387000 -39.081100 -0.002282 -0.040193 -0.106569 0.229823 25.552900 -40.985400 0.000008 0.000006 0.817026 19.689400 -64.988700 -11.754300 -0.000006 -0.000006 -0.001346 -0.020208 -17.394800
0.000000 0.000000 0.000000 0.000000 0.000000 -0.000000 4.586560 91.576000 -0.450126 89.004300 -12.082100 3.451430 15.735700 0.000005 -0.000001 82.121500 84.340700 -79.662300 8.984550 -0.406207 -0.000000 3.486850 -1.641310 4.963260 16.377300 -0.000001 -0.000001 5.585870 -0.565490 -4.412060 6.456720 -0.000001 -0.000000 -2.747480 -1.291370 -3.424080 12.994200 -0.242716 4.980390 -84.942300 -9.437660 -61.642500 5.348090 -0.000007 -0.000001 -34.596800 -58.144700 -72.929800 24.328600 0.000019 0.000005 14.144600 5.438720 -69.390200 22.291600 -0.000001 0.000005 40.469700 5.273980 0.791068 12.994500 -0.242716 -4.980390 88.004300 7.950400 -75.859800 -5.348130 -0.000001 -0.000004 -58.126100 30.824500 -7.552360 -24.328900 0.000322 -0.000009 1.172060 2.592830 -24.354900 -22.291500 -0.000108 -0.000004 14.717400 5.400280 -2.946620 -2.192480 -6.469440 -0.000000 -178.647000 -23.735100 -4.452190 39.081100 -0.000007 -0.000012 -0.062308 0.124778 26.535500 40.985400 -0.000006 -0.000013 4.541810 7.154680 -69.243600 11.754300 -0.000000 0.000003 -0.000028 -0.000340 -16.590800 -2.192510 6.469440 -0.000001 174.189000 17.536600 173.426000 -39.081100 -0.002282 -0.040193 -0.104795 0.226682 25.496800 -40.985400 0.000008 0.000006 1.023100 19.518600 -65.133400 -11.754300 -0.000006 -0.000006 -0.001261 -0.019054 -17.347900
0.000000 0.000000 0.000000 0.000000 0.000000 -0.000000 4.438980 91.605100 -0.428203 89.139700 -11.440400 3.365240 15.735700 0.000005 -0.000001 81.733000 84.393300 -79.393900 8.984550 -0.406207 -0.000000 3.371090 -1.700080 4.723440 16.377300 -0.000001 -0.000001 5.239660 -0.639382 -4.052660 6.456720 -0.000001 -0.000000 -2.728400 -1.091950 -3.223890 12.994200 -0.242716 4.980390 -85.529200 -8.596830 -62.387400 5.348090 -0.000007 -0.000001 -34.271900 -54.632900 -66.791100 24.328600 0.000019 0.000005 14.218100 3.105900 -77.931800 22.291600 -0.000001 0.000005 36.991600 5.271880 0.847978 12.994500 -0.242716 -4.980390 87.951400 8.101920 -75.758800 -5.348130 -0.000001 -0.000004 -58.481600 30.569900 -7.376090 -24.328900 0.000322 -0.000009 1.011580 2.229990 -24.430500 -22.291500 -0.000108 -0.000004 14.871600 5.401590 -2.988920 -2.192480 -6.469440 -0.000000 -178.695000 -23.615200 -4.472260 39.081100 -0.000007 -0.000012 -0.060435 0.122150 26.324400 40.985400 -0.000006 -0.000013 4.563230 7.696800 -69.122800 11.754300 -0.000000 0.000003 -0.000025 -0.000309 -16.589600 -2.192510 6.469440 -0.000001 174.131000 17.980200 173.487000 -39.081100 -0.002282 -0.040193 -0.104414 0.226364 25.449600 -40.985400 0.000008 0.000006 1.102600 19.311900 -65.238400 -11.754300 -0.000006 -0.000006 -0.001329 -0.019981 -17.385600
0.000000 0.000000 0.000000 0.000000 0.000000 -0.000000 4.256020 91.616800 -0.399545 89.189000 -10.705400 3.392830 15.735700 0.000005 -0.000001 81.606100 84.398800 -79.357400 8.984550 -0.406207 -0.000000 3.355390 -1.719880 4.543090 16.377300 -0.000001 -0.000001 4.875300 -0.708147 -3.558990 6.456720 -0.000001 -0.000000 -2.831130 -0.844778 -3.072320 12.994200 -0.242716 4.980390 -86.378700 -7.285750 -63.479800 5.348090 -0.000007 -0.000001 -32.933100 -49.997000 -59.516400 24.328600 0.000019 0.000005 13.609400 0.945917 -86.102300 22.291600 -0.000001 0.000005 33.584200 5.278750 0.653405 12.994500 -0.242716 -4.980390 87.903500 8.262980 -75.709400 -5.348130 -0.000001 -0.000004 -58.832200 30.502700 -7.233920 -24.328900 0.000322 -0.000009 0.979325 2.180400 -24.217500 -22.291500 -0.000108 -0.000004 14.843500 5.403190 -3.041490 -2.192480 -6.469440 -0.000000 -178.570000 -23.468700 -4.431550 39.081100 -0.000007 -0.000012 -0.060119 0.121714 26.286800 40.985400 -0.000006 -0.000013 4.585690 8.301700 -69.086600 11.754300 -0.000000 0.000003 -0.000031 -0.000368 -16.591900 -2.192510 6.469440 -0.000001 174.127000 18.484100 173.686000 -39.081100 -0.002282 -0.040193 -0.106586 0.230890 25.453300 -40.985400 0.000008 0.000006 1.184510 19.055600 -65.382700 -11.754300 -0.000006 -0.000006 -0.001260 -0.019037 -17.347300
